<?xml version="1.0" encoding="iso-8859-1"?>
<!-- Generator: Adobe Illustrator 17.1.0, SVG Export Plug-In . SVG Version: 6.00 Build 0)  -->
<!DOCTYPE svg PUBLIC "-//W3C//DTD SVG 1.1//EN" "http://www.w3.org/Graphics/SVG/1.1/DTD/svg11.dtd">
<svg version="1.1" id="Capa_1" xmlns="http://www.w3.org/2000/svg" xmlns:xlink="http://www.w3.org/1999/xlink" x="0px" y="0px"
	 viewBox="0 0 206.462 206.462" style="enable-background:new 0 0 206.462 206.462;" xml:space="preserve">
<path d="M177.003,206.424h-21.471c-2.209,0-4-1.791-4-4v-18.021H54.93v18.021c0,2.209-1.791,4-4,4H29.459c-2.209,0-4-1.791-4-4
	v-18.021H12.668c-2.209,0-4-1.791-4-4v-50.264c0-10.119,7.227-18.582,16.792-20.496V98.807c0-21.179,17.23-38.409,38.408-38.409
	h78.727c21.179,0,38.408,17.23,38.408,38.409v10.835c9.564,1.915,16.791,10.377,16.791,20.496v50.264c0,2.209-1.791,4-4,4h-12.791
	v18.021C181.003,204.633,179.212,206.424,177.003,206.424z M159.532,198.424h13.471v-14.021h-13.471V198.424z M33.459,198.424H46.93
	v-14.021H33.459V198.424z M177.003,176.403h12.791v-46.264c0-7.114-5.787-12.902-12.901-12.902H29.569
	c-7.114,0-12.902,5.788-12.902,12.902v46.264H177.003z M155.494,109.237h17.509v-10.43c0-16.768-13.641-30.409-30.408-30.409H63.867
	c-16.767,0-30.408,13.641-30.408,30.409v10.43h81.345c1.869-9.524,10.281-16.732,20.345-16.732S153.625,99.713,155.494,109.237z
	 M123.06,109.237h24.178c-1.681-5.067-6.465-8.732-12.089-8.732S124.741,104.17,123.06,109.237z M166.267,165.841
	c-8.125,0-14.735-6.61-14.735-14.736c0-8.125,6.61-14.735,14.735-14.735s14.735,6.61,14.735,14.735
	C181.003,159.231,174.392,165.841,166.267,165.841z M166.267,144.37c-3.714,0-6.735,3.021-6.735,6.735
	c0,3.714,3.021,6.736,6.735,6.736s6.735-3.021,6.735-6.736C173.003,147.392,169.981,144.37,166.267,144.37z M140.954,165.841H65.507
	c-2.209,0-4-1.791-4-4s1.791-4,4-4h75.446c2.209,0,4,1.791,4,4S143.163,165.841,140.954,165.841z M40.194,165.841
	c-8.125,0-14.735-6.61-14.735-14.736c0-8.125,6.61-14.735,14.735-14.735s14.735,6.61,14.735,14.735
	C54.93,159.231,48.319,165.841,40.194,165.841z M40.194,144.37c-3.714,0-6.735,3.021-6.735,6.735c0,3.714,3.021,6.736,6.735,6.736
	s6.735-3.021,6.735-6.736C46.93,147.392,43.908,144.37,40.194,144.37z M140.954,144.37H65.507c-2.209,0-4-1.791-4-4s1.791-4,4-4
	h75.446c2.209,0,4,1.791,4,4S143.163,144.37,140.954,144.37z M202.459,50.04c-0.52,0-1.048-0.102-1.558-0.317l-97.67-41.34
	L5.56,49.722c-2.035,0.862-4.382-0.091-5.243-2.125c-0.861-2.034,0.09-4.382,2.125-5.243l99.23-42
	c0.509-0.215,1.038-0.317,1.557-0.317c0.001,0,0.001,0,0.002,0c0,0,0.001,0,0.002,0c0.481,0,0.97,0.087,1.443,0.271
	c0.044,0.017,0.087,0.034,0.13,0.053l99.214,41.993c2.034,0.861,2.985,3.208,2.124,5.243
	C205.499,49.123,204.017,50.04,202.459,50.04z"/>
<g>
</g>
<g>
</g>
<g>
</g>
<g>
</g>
<g>
</g>
<g>
</g>
<g>
</g>
<g>
</g>
<g>
</g>
<g>
</g>
<g>
</g>
<g>
</g>
<g>
</g>
<g>
</g>
<g>
</g>
</svg>
